<?xml version="1.0" encoding="UTF-8"?>
<svg xmlns="http://www.w3.org/2000/svg" version="1.1" viewBox="0 0 1080 1080">
  <defs>
    <style>
      .cls-1 {
        font-family: OpenSans-Extrabold, 'Open Sans';
        font-size: 156.6px;
        font-weight: 700;
        letter-spacing: .1em;
        stroke: #000;
        stroke-miterlimit: 10;
        stroke-width: 5px;
      }
    </style>
  </defs>
  <!-- Generator: Adobe Illustrator 28.6.0, SVG Export Plug-In . SVG Version: 1.2.0 Build 709)  -->
  <g>
    <g id="Capa_1">
      <text class="cls-1" transform="translate(39.7 523.4)"><tspan x="0" y="0">BOTANERO</tspan></text>
      <g>
        <path d="M294.3,724.8c-1,1.6-7.5,2.2-9.5,1-2.1-1.2-3.6-3.9-4.5-8.1-1.1-5-2.8-12.2-5.2-21.4-2.4-9.2-4.1-15.9-5.1-20-.8-3.3-2.2-5.7-4-6.9-1.8-1.2-4.5-1.5-8-.8-13.8,2.4-28.2,4.4-42.1,5.9-3.3.4-5.7,1.2-7,2.7-1.3,1.5-1.8,4-1.5,7.4.4,4.8.5,12.2.7,21.9.1,9.7.4,17,.7,21.9.3,4.5-.5,7.5-2.4,8.9-1.9,1.4-5.1,1.7-9.4.7-6-39.2-12-78.4-18-117.6-1.1-7.2,0-13,3.2-17.5,3.2-4.5,8.6-7.5,16-8.8,19.1-3.3,38.5-6,57.7-8.3,7.3-.9,13.2.3,17.5,3.5,4.3,3.2,7,8.4,7.9,15.2,4.9,39.4,20.8,107.1,13.2,120.2ZM261.2,648.7c-.5-5.5-1-10.1-1.6-13.6-.6-3.5-1.6-6.7-2.8-9.4-1.3-2.7-2.7-4.8-4.4-6.1-1.6-1.3-3.9-2.4-6.9-3.1-2.9-.7-6.2-1-9.6-.9-3.5.1-8,.6-13.4,1.2-3.6.4-6.5,1.2-8.8,2.3-2.3,1.1-4,2.5-5.3,4.3-1.3,1.7-2.1,4.3-2.5,7.6-.4,3.3-.5,6.8-.3,10.6.1,3.8.6,8.7,1.4,14.8,18.1-2.7,36.2-5.3,54.3-7.7Z"/>
        <path d="M340.1,702.3c21.3-2,42.7-3.7,64.1-5.2-.6-10.2-1.3-20.5-1.9-30.7-8.8.6-13.2.9-22,1.6-1.1,3.4-1.1,5.9,0,7.6,1.1,1.7,3.5,2.3,7.2,1.8.4,0,1.1-.1,2-.3,1-.2,1.8-.3,2.5-.2.7,0,1.3.1,1.9.4,1.1.4,2.1,1.1,3,2.1.9,1,1.5,2,1.8,3,.1.6-.2,1.6-1.1,2.8-.9,1.2-1.7,1.9-2.5,2.2-8.2,2.8-14,3.1-17.4.9-3.4-2.2-5.5-7.5-6.1-16-.4-5.8-.7-8.7-1.1-14.5,13.2-1.1,26.4-2,39.7-2.8,1.2,20.1,2.3,40.1,3.5,60.2-31.8,2.1-63.5,4.8-95.2,8.1,14.9-40.8,30.5-81.3,47.2-121.4-16.6,1.3-33.1,2.9-49.6,4.6-1.5,8.2,4.4,11.8,17.6,11.3,0,1,.3,2.5.8,4.6.4,2.1.7,3.7.9,4.7-10.5,1-15.7,1.5-26.2,2.6-1.6-16.5-3.3-33-4.9-49.5,34.5-3.6,69.1-6.5,103.8-8.7-12.2,21.8-24,43.8-35.4,65.8-11.1,21.5-22,43.3-32.6,65.1,0,0,0,0,.1,0Z"/>
        <path d="M501.6,593.7c-2.8,36.4-6,73.3-7.9,109.1,0,1.5-.7,3.2-2,5-1.3,1.8-2.6,3-4,3.5-2.6.9-4.4.7-5.6-.8-1.2-1.5-2-3.8-2.3-6.9-1.8-16.3-3.5-32.8-5.3-49.2-1.7-14.8-3.3-29.5-5-44.3,0,0,0-.2,0-.3-.9-7.6-2.1-12.1-3.5-13.3-1.4-1.2-6-1.7-13.7-1.3-7.1.3-10.6.5-17.7.8-.5-10.5-.7-15.7-1.2-26.1,33.7-1.6,67.3-2.6,101-2.9,0,1.2,0,3.3.1,6.4,0,3.1,0,5.8,0,7.9,0,2.2,0,4.4-.3,6.4-.1.9-1.1,2-2.7,3.3-1.6,1.2-3.1,1.9-4.5,2-2.3.2-4.8.3-7.3.4-2.5,0-5.7,0-9.5,0-3.8,0-6.6,0-8.3,0,0,0,0,0-.1,0,0,0,0,0,0,.1Z"/>
        <path d="M666.5,571.2c-.5,10.1-.7,15.1-1.2,25.1-17.4-.8-34.7-1.5-52.1-2-13.6-1.4-23.4,8.3-25.2,21.2-.7,4.7-1.2,8.7-1.6,11.9.8.1,2.8.3,6.2.6,3.4.3,5.9.5,7.6.7,16.5.4,32.9.9,49.3,1.6,9.7.4,14.2,5.6,13.4,15.3,0,.7-.2,1.7-.5,3.1-.3,1.4-.5,2.5-.5,3.3-26-1.2-51.9-2.1-77.9-2.5-.2,2.3-1,8.5-2.3,18.7-1.3,10.2-2.2,18.2-2.9,24.1,27.2.4,54.3,1.3,81.5,2.6-.3,7.1-.5,10.6-.8,17.7-.4,0-1.5.2-3.2.4-1.8.2-3.1.3-4.1.2-24.2-1.1-48.3-1.8-72.5-2.2-5.4,0-9.6-1.6-12.7-4.5-3.1-2.9-4.6-7.1-4.6-12.4,0-34.7-.2-69.7.8-104.6.2-8.1,2.4-13.9,6.4-17.4,4-3.4,10.4-5.1,19.1-4.9,24.9.5,49.8,1.2,74.7,2.6,0,0,1.1.4,3.1,1.3Z"/>
        <path d="M795.3,580.2c-2.3,23.6-4.7,47.1-7,70.7-14.5-1.5-29-2.9-43.6-4.2.9-11,1.8-22.1,2.7-33.1,10.1.9,15.1,1.3,25.1,2.3-.1,3.6-.2,6.7-.3,9.4-1.2,0-3.8-.1-8-.3-4.2-.2-9.4-.8-9.9-.4-.4.3-.6,3.6-1,6.4-.5,2.8-.8,4.6-.8,5.4,9.6.9,19.1,1.8,28.6,2.8,1.1-11.1,2.1-22.2,3.2-33.3-2.8-.3-8.8-1-18-1.9-9.2-1-16.8-1.6-22.8-2-6-.4-12-.7-17.8-.9-1.7,0-3.7,1-6,3-2.3,2-3.7,4-4.1,5.8-5.6,29-10.4,58.2-15.2,87.3,27.6,2,55.1,4.4,82.6,7.2-.8,7.6-1.1,11.3-1.9,18.9-15.8-1.7-31.6-3.2-47.4-4.5-2.3-.2-5.7-.5-10-.8-4.4-.3-8.3-.7-11.9-.9-3.6-.3-6.9-.5-10.1-.7-9-.6-14.2-5.4-15.5-14.1-.7-4.7-.9-9-.8-12.7,1.7-30.2,3.5-60.4,5.2-90.6.2-3.9.6-7.3,1-10.2.5-2.9,1-5.3,1.7-7.2.7-2,1.5-3.6,2.4-4.7,1-1.2,2.1-2.1,3.3-2.7,1.3-.6,2.7-1,4.2-1.2,1.5-.1,3.3-.2,5.2,0s4.1.2,6.4.4c2,.2,3.7.4,4.9.5,25.2,1.9,50.4,4.2,75.6,6.8Z"/>
        <path d="M902.9,738.5c-1.3,1.3-7.8,0-9.4-1.7-1.7-1.7-2.5-4.8-2.3-9.1.2-5.1.5-12.6.5-22.1,0-9.5.2-16.5.3-20.7,0-3.4-.7-6.1-2.1-7.7-1.4-1.7-4-2.6-7.5-3-13.9-1.5-28.3-3.6-42.1-5.9-3.2-.6-5.8-.4-7.4.7-1.7,1.1-2.8,3.4-3.4,6.7-.9,4.8-2.6,11.9-5,21.3-2.4,9.4-4,16.5-5,21.3-.9,4.4-2.4,7.1-4.6,7.9-2.2.8-5.3.2-9.3-1.9,4.3-39.4,8.7-78.9,13-118.3.8-7.2,3.3-12.6,7.6-16,4.3-3.4,10.2-4.8,17.6-4,19.2,2.1,38.7,4.9,57.8,8,7.3,1.2,12.7,4,16,8.3,3.3,4.3,4.6,10,3.6,16.8-5.5,39.3-7.7,109.1-18.3,119.5ZM890.7,656c1-5.5,1.6-10,1.9-13.6.3-3.6.2-6.9-.3-9.9-.5-3-1.4-5.3-2.6-7.1-1.2-1.7-3.2-3.4-5.8-4.9-2.7-1.5-5.7-2.7-9.1-3.5-3.4-.8-7.8-1.6-13.2-2.5-3.6-.6-6.6-.7-9.1-.2-2.5.4-4.6,1.3-6.2,2.7-1.7,1.3-3.1,3.5-4.3,6.6-1.2,3.1-2.2,6.5-3.1,10.1-.8,3.7-1.7,8.5-2.5,14.6,18.1,2.4,36.2,4.9,54.3,7.6Z"/>
      </g>
    </g>
  </g>
</svg>